<svg id="Capa_1" data-name="Capa 1" xmlns="http://www.w3.org/2000/svg" viewBox="0 0 256 256"><defs><style>.cls-1{fill:#6637ba;}.cls-2{fill:#ffcc01;}</style></defs><title>Mesa de trabajo 11</title><rect class="cls-1" x="-3.4" y="-3.4" width="262.79" height="262.79"/><path class="cls-2" d="M110.71,122.5c.23,0-.24,0,0,0L124,133.88c2.87,2.45,5.2,2.46,8.06,0q6.67-5.68,13.37-11.34h0a28.25,28.25,0,0,1-17.22-5c-6.11,4.22-11.75,5.65-17.52,5"/><path class="cls-2" d="M134.22,137.22a10.13,10.13,0,0,1-12.47,0c-1.5-1.21-2.89-2.53-4.41-3.87l-16.67,14.35c18.17.21,36.35.1,54.52.09q-8.31-7.16-16.59-14.32C137.08,134.75,135.71,136,134.22,137.22Z"/><path class="cls-2" d="M128,105.08c8.64,0,13.47-5.15,11.2-12-1.49-4.49-4.92-6.28-11.85-6.19-5.66.07-8.9,2.18-10.21,6.62C115.21,100.05,119.92,105.07,128,105.08Z"/><path class="cls-2" d="M114.38,130.61c-4.42-3.62-8.9-7.2-13.39-10.76a58.54,58.54,0,0,1-4.86-4.16c-5-5-7.3-11.34-8.81-18C86,91.6,82,88.51,76.37,87.54a30.08,30.08,0,0,0-11,0c-14.24,3-19.44,20.39-13.1,28.08,8.32,10.1,7.71,14.28.11,25.23a14.64,14.64,0,0,0-2.86,7.2,20.36,20.36,0,0,0,17.1,20.63c5.42.94,11.24.49,15.73-3a19.21,19.21,0,0,0,5.21-6.39c1.58-3,2-6.73,4.31-9.3a15.19,15.19,0,0,1,1.88-1.71C100.8,142.59,107.53,136.51,114.38,130.61Z"/><path class="cls-2" d="M141.62,130.61c4.42-3.62,8.9-7.2,13.39-10.76a58.54,58.54,0,0,0,4.86-4.16c5-5,7.3-11.34,8.81-18,1.37-6.05,5.36-9.14,10.95-10.11a30.08,30.08,0,0,1,11,0c14.24,3,19.44,20.39,13.1,28.08-8.32,10.1-7.71,14.28-.11,25.23a14.64,14.64,0,0,1,2.86,7.2,20.36,20.36,0,0,1-17.1,20.63c-5.42.94-11.24.49-15.73-3a19.21,19.21,0,0,1-5.21-6.39c-1.58-3-2-6.73-4.31-9.3a15.19,15.19,0,0,0-1.88-1.71C155.2,142.59,148.47,136.51,141.62,130.61Z"/></svg>